<svg width="758" height="845" viewBox="0 0 758 845" fill="none" xmlns="http://www.w3.org/2000/svg">
<path d="M171.8 843.638C163.5 843.138 153.8 842.038 150.5 841.138C128.1 835.438 113.2 816.538 106.4 785.138C103.9 773.538 103.9 769.938 107.6 635.138C109.3 575.738 110.6 523.338 110.6 518.638V510.138L98.8 506.338C63.3 494.938 34.3 475.938 18.1 453.238C11.8 444.438 5.1 429.738 2.4 419.038C-0.8 406.138 -0.8 383.538 2.4 368.138C9.6 334.538 25.3 300.638 44.7 277.138C62.4 255.638 87.5 237.638 111.9 229.138L119.6 226.338V176.738C119.6 131.938 119.8 126.238 121.5 117.938C123.5 108.138 128.4 95.9378 133.6 87.2378C144.3 69.6378 166.5 51.0378 191.1 39.1378C214.3 27.9378 232.6 23.7378 271.1 20.7378C349.9 14.5378 602.1 -0.862175 610.5 0.0378247C617.8 0.737825 627.6 5.63783 632.1 10.8378C637 16.6378 639.5 23.9378 640.1 34.8378C640.4 39.9378 641.3 63.4378 642.1 87.0378C642.9 110.638 643.8 130.138 644 130.438C644.3 130.638 648.2 131.238 652.8 131.738C690.4 135.738 719.8 149.538 735.5 170.338C747.9 186.838 756 210.438 757.3 233.638C758.4 253.438 754.4 271.338 744.6 291.138C737.5 305.438 728.8 317.238 717.5 328.138L709.1 336.138L680.2 346.638C664.3 352.438 651.1 357.638 650.9 358.338C650.6 359.038 654.1 407.638 658.5 466.338C663 525.038 666.6 577.038 666.6 581.838C666.6 599.038 657.5 641.738 647.8 670.638C637 702.638 625.6 725.638 608.6 749.938C600.6 761.338 578.7 783.338 568.4 790.438C527.4 818.438 444.5 835.238 311.1 842.638C285.8 844.038 191.1 844.738 171.8 843.638ZM323.1 810.238C424 803.938 493.4 791.938 532.7 773.938L540.3 770.538L536.9 758.838C522.9 710.638 523.7 663.238 539.3 625.738C543.8 614.638 548.3 607.938 558.1 597.838C575.4 579.738 599.8 568.238 626.1 565.838L634.1 565.138L633.9 561.638C631.3 525.538 619.3 370.038 619 369.738C618.6 369.238 601.9 375.538 535.1 401.138C460.6 429.738 413.2 448.738 363.6 469.838C295 499.138 252.2 512.238 206.1 518.138C190.2 520.238 163.5 520.338 151.4 518.338C146.5 517.638 142.6 517.238 142.6 517.538C142.6 517.838 141 574.638 139.1 643.638C136.1 755.938 135.9 769.938 137.1 776.638C140.2 793.038 146.9 805.638 154.1 809.038C156.5 810.238 161.9 811.138 169 811.638C187.1 812.938 294.8 811.938 323.1 810.238ZM572.2 744.438C598.2 716.038 620.3 665.538 631 610.138C633.6 596.438 633.7 597.138 629.1 597.438C615.1 598.538 596.3 605.838 586.8 614.038C572.5 626.338 565.8 639.038 560.9 663.438C558.5 675.438 558.5 707.038 560.9 721.138C563.3 735.038 566.6 748.638 567.6 748.638C568 748.638 570.1 746.738 572.2 744.438ZM193.1 487.638C219.7 485.138 248.6 478.638 281.6 467.638C304.7 459.938 316.4 455.438 354.5 439.238C407 416.938 470.9 391.538 554.6 359.638C593.2 344.938 685.4 310.738 690.3 309.238C693.1 308.338 704.3 296.438 709.6 288.538C728.7 260.438 730.7 229.038 715.4 197.838C706.1 178.938 684.2 167.338 649.7 163.138L644.3 162.538L645 178.938L645.7 195.338L630 196.038C621.4 196.438 614.3 196.638 614.1 196.438C613.9 196.238 612.9 166.238 611.7 129.638C610.5 93.0378 609.3 56.0378 608.9 47.4378L608.3 31.6378H604.1C595.4 31.6378 384.7 44.5378 317.1 49.1378C248.2 53.9378 237 55.3378 218.7 61.8378C190.8 71.6378 166.6 90.8378 157.4 110.338C150.8 124.138 151.2 117.438 150.9 225.938L150.5 324.638H135.1H119.6V292.638C119.6 270.238 119.3 260.638 118.5 260.638C116 260.638 99.5 270.038 91.5 276.038C68.2 293.638 50.7 319.338 39.7 352.238C24.2 398.738 31.1 429.638 62.1 452.938C83.7 469.038 117.3 481.538 151.6 486.138C158.5 487.038 164.8 487.938 165.6 488.138C169 488.838 182.8 488.538 193.1 487.638Z" fill="#FF7F3A"/>
</svg>
